<?xml version="1.0" standalone="no"?>
<!DOCTYPE svg PUBLIC "-//W3C//DTD SVG 20010904//EN"
 "http://www.w3.org/TR/2001/REC-SVG-20010904/DTD/svg10.dtd">
<svg version="1.0" xmlns="http://www.w3.org/2000/svg"
 width="626.000000pt" height="626.000000pt" viewBox="0 0 626.000000 626.000000"
 preserveAspectRatio="xMidYMid meet">
<metadata>
Created by potrace 1.11, written by Peter Selinger 2001-2013
</metadata>
<g transform="translate(0.000000,626.000000) scale(0.100000,-0.100000)"
fill="#000000" stroke="none">
<path d="M2580 6010 c-386 -40 -774 -292 -933 -607 -15 -28 -36 -87 -48 -129
-72 -262 -187 -431 -388 -569 -172 -118 -453 -195 -664 -181 -182 13 -355 63
-487 143 l-55 33 -3 -47 c-4 -56 12 -144 40 -228 64 -188 217 -335 440 -424
148 -58 299 -89 625 -127 266 -30 367 -28 638 12 181 27 346 65 486 113 332
112 614 307 779 538 33 45 71 105 85 133 14 27 30 50 35 50 5 0 21 -23 35 -50
42 -83 139 -210 217 -286 148 -143 293 -238 522 -339 124 -55 378 -125 546
-149 58 -9 134 -20 170 -26 163 -24 298 -23 535 5 492 56 720 130 895 292 125
116 209 307 210 476 l0 59 -47 -28 c-152 -89 -305 -135 -500 -150 -111 -8
-313 23 -433 66 -331 121 -523 334 -619 684 -39 141 -111 258 -235 381 -45 44
-109 99 -143 122 -151 103 -350 189 -508 220 -101 19 -281 20 -360 0 -115 -28
-225 -101 -273 -183 -12 -19 -12 -19 -24 0 -86 145 -296 221 -538 196z"/>
<path d="M3045 4380 c-148 -180 -377 -351 -623 -463 -198 -90 -494 -165 -741
-188 -83 -7 -229 -10 -386 -7 l-253 5 -6 -91 c-9 -120 10 -553 30 -686 36
-241 46 -300 71 -390 49 -183 118 -327 201 -419 l39 -44 6 -131 c19 -461 215
-855 576 -1160 328 -276 820 -483 1304 -546 168 -22 234 -20 370 16 258 67
580 265 714 439 64 84 78 122 78 218 l0 88 50 56 c62 71 121 147 146 193 11
19 32 55 46 80 97 171 154 408 155 643 0 135 0 137 23 143 53 13 113 114 144
239 49 200 45 906 -7 1271 l-7 49 -150 6 c-225 9 -431 34 -615 75 -456 101
-809 293 -1000 544 -33 43 -65 90 -71 104 -7 14 -18 26 -24 26 -7 0 -39 -32
-70 -70z"/>
</g>
</svg>
